<?xml version="1.0" encoding="UTF-8" standalone="no"?>
<svg width="57px" height="57px" viewBox="0 0 57 57" version="1.1" xmlns="http://www.w3.org/2000/svg" xmlns:xlink="http://www.w3.org/1999/xlink">
    <!-- Generator: Sketch 41.2 (35397) - http://www.bohemiancoding.com/sketch -->
    <title>Chat 2</title>
    <desc>Created with Sketch.</desc>
    <defs></defs>
    <g id="Page-1" stroke="none" stroke-width="1" fill="none" fill-rule="evenodd">
        <g id="Chat-2" fill="#000000">
            <path d="M0.3,56.7 L2.2,54 C2.2,54 3.6,51.8 4.3,46.4 C4.6,44.2 4,42.2 3.3,39.7 C2.5,36.6 1.4,32.6 1.4,26.6 C1.4,12.2 13.5,0.5 28.4,0.5 C34.5,0.5 39.6,2.8 40.1,3.1 C50,7.7 56.3,17.6 56.3,28.5 C56.3,43.9 43.8,56.4 28.4,56.4 C23.6,56.4 18.9,55.2 14.7,52.8 C13.8,53.3 12.8,53.8 11.9,54.2 C7.7,55.9 3.7,56.4 3.6,56.4 L0.3,56.7 Z M14.6,49.2 L15.4,49.7 C19.3,52.1 23.8,53.3 28.3,53.3 C42.1,53.3 53.2,42.1 53.2,28.4 C53.2,18.7 47.5,9.8 38.7,5.8 C38.5,5.7 33.8,3.5 28.2,3.5 C15,3.5 4.2,13.9 4.2,26.6 C4.2,32.2 5.2,35.7 6,38.9 C6.7,41.6 7.4,44 7,46.8 C6.7,49.5 6.2,51.5 5.7,53 C7.1,52.7 8.8,52.2 10.5,51.5 C11.5,51.1 12.6,50.5 13.6,49.9 L14.6,49.2 Z" id="Shape"></path>
        </g>
    </g>
</svg>